inDegrees=yes
nColumns=22
nRows=23
DataType=double
version=3
OpenSimVersion=4.5
endheader
time	pelvis_tilt	pelvis_list	pelvis_rotation	pelvis_tx	pelvis_ty	pelvis_tz	hip_flexion_r	hip_adduction_r	hip_rotation_r	knee_angle_r	ankle_angle_r	mtp_angle_r	hip_flexion_l	hip_adduction_l	hip_rotation_l	knee_angle_l	ankle_angle_l	mtp_angle_l	lumbar_extension	lumbar_bending	lumbar_rotation
0	-2.915332984208464	2.074542810308871	4.831526052508088	0	0.8049214866096452	-0.006182214762523323	37.0089411865996	-1.992914612758134	-11.88818808696457	-15.82345390594464	-0.6123864695016831	0	-19.73937902382679	6.29316173103449	-3.068419528959553	-3.929937230416397	14.46946718665341	0	-2.43374412303223	-2.129097241869017	-8.004427323746794
0.01137310466837795	-3.27009703604948	1.636315521319181	4.646327681533942	0.01638090274333551	0.8034692097832176	-0.005667599461562471	36.29511900095076	-1.183185587302225	-10.90537150652577	-15.86256495335518	-0.7637233376259317	0	-19.58605103104414	5.823529572347587	-4.015820223243278	-5.486097961780674	13.5871837405604	0	-1.765765894829197	-1.523414409608236	-7.590627550697887
0.02274620933675589	-3.562919948772009	1.164086669875142	4.453276305850085	0.03302353375977976	0.8026390344777956	-0.005087530767264111	35.45723988158872	-0.3103527771221532	-9.927059742088298	-15.80182027113383	-1.082414558815357	0	-19.38465136011884	5.273038983627748	-4.912703860489755	-7.216063278979656	12.33885476360125	0	-1.154525984166981	-0.8579855405530495	-7.177597096313907
0.03411931400513384	-3.777916698546406	0.5359213060900244	4.210120560273796	0.04960640936559423	0.8025857202458955	-0.004402006215318449	34.7496155076149	0.6910586494683844	-9.068222680301128	-15.90784307307648	-2.211772243444817	0	-19.10796267134464	4.528252398162558	-5.797764669258291	-9.147447750164494	10.79561181936152	0	-0.654281210684173	0.01708520792008736	-6.75025835745683
0.04549241867351178	-3.8978434754014	-0.210030913537301	3.901804993806376	0.06607384866565252	0.803354191421345	-0.00360437235129403	34.22845841698524	1.760894430411088	-8.387746241182953	-16.49664225949751	-3.295653050011246	0	-18.77853889166573	3.631604937979197	-6.659377899405194	-11.27354498796647	8.950601254571163	0	-0.2909153329806433	1.058593710419936	-6.306307966672497
0.05686552334188973	-3.907198955105947	-0.9281275619442191	3.531988269602643	0.08250995129658198	0.8049026234812034	-0.002678940786686361	33.8431992415282	2.767429224097085	-7.87018349715519	-17.69689156116508	-3.525002158887713	0	-18.43238868736405	2.729427674710474	-7.456581602383572	-13.58835074047281	6.825024693782939	0	-0.06740563414841688	2.087331698842043	-5.858934184885499
0.06823862801026767	-3.811365595488151	-1.535374026718426	3.1116354922618	0.09897491932528361	0.8071468454868841	-0.001661995564618721	33.42639230858647	3.650215175548419	-7.476348272646398	-19.14810605145509	-3.264797506961286	0	-18.00199883721768	1.900867695859146	-8.173052882199844	-16.236421277097	4.609189802889388	0	0.0404939290702104	3.003890161870097	-5.40810786561889
0.07961173267864562	-3.630472299733742	-2.01132333224878	2.668758517229539	0.1154446177735226	0.8099615828533466	-0.0006301949551626499	32.82173559254741	4.402462269401449	-7.161872013374889	-20.51095652977686	-2.629962575576843	0	-17.36473810849243	1.153722113347171	-8.806348177298004	-19.42586417356523	2.598293468280566	0	0.06345478209011347	3.783688598817916	-4.962446662677829
0.09098483734702356	-3.397180947899765	-2.392864058817019	2.238770358369867	0.131794549987675	0.8131753672665651	0.0003456857395105657	31.95689010496023	5.059976761679023	-6.887272403008049	-21.56112950940852	-1.732720299522239	0	-16.42586102759214	0.4362117547907495	-9.305093831902711	-23.22386444780676	0.8326478458283705	0	0.02778930108666642	4.464047024426185	-4.53132944439724
0.1023579420154015	-3.151438071812497	-2.714628573385331	1.858006815558526	0.147866598235827	0.8166035261107777	0.001231042006251981	30.82418451537274	5.64141382521772	-6.664461473438179	-22.15428793264678	-0.7722054286941191	0	-15.14305666402831	-0.290444708589938	-9.591468423460832	-27.52564518045667	-0.8688110794754399	0	-0.04278908655868198	5.068719146720219	-4.112769864095785
0.1137310466837795	-2.92812129845532	-3.003991901864648	1.556481841244916	0.1635012231941442	0.820078093420469	0.001994811695322363	29.50112535609206	6.150761042742239	-6.531330751084561	-22.33579482317615	0.2332382788977154	0	-13.47580151688755	-1.048563922872678	-9.645086806261832	-32.21848557231127	-2.799822239134959	0	-0.1313098774328508	5.617037927010857	-3.704631897664156
0.1251041513521574	-2.753470074226158	-3.263762908257819	1.355996390168139	0.1785839426647099	0.823457589171423	0.0026283572322036	28.08457870848198	6.577702761769705	-6.509275761943176	-22.19255668151747	1.197122840375	0	-11.40760888967966	-1.833386409815616	-9.490282085009735	-37.18733878212296	-5.104386935157404	0	-0.2238848942413111	6.101035304393857	-3.308140836045562
0.1364772560205353	-2.643093066073526	-3.502419592982282	1.260451969860898	0.193101618194835	0.8266285621604657	0.003137337301123811	26.66584886055099	6.930174971189699	-6.605404519500165	-21.84660439375389	2.108103294528015	0	-9.021970989953875	-2.62680373481127	-9.160067481044097	-42.14094057697059	-7.813880930547225	0	-0.3043464224914435	6.525401844232957	-2.925650281288933
0.1478503606889133	-2.598958976460215	-3.680582947628299	1.253559131646026	0.2071264688546869	0.8295615753222716	0.003553108026009647	25.28856754530797	7.184395279810948	-6.778004405812552	-21.37729340548227	2.941526346585439	0	-6.466101501215591	-3.347842616575846	-8.703554324706067	-46.67032904701539	-10.50932621761909	0	-0.3627045657738361	6.843054590287966	-2.558821394434427
0.1592234653572912	-2.613596737924685	-3.762258954661864	1.309039325337452	0.2207171489519719	0.83226816705798	0.003898141438118135	23.98145678406995	7.322550056241294	-6.9607768417266	-20.86402834793209	3.713836513291727	0	-3.811320296764728	-3.914733623299964	-8.15145969320141	-50.71660722822818	-12.04405797509542	0	-0.3999766410313625	7.017540561298494	-2.203443730794995
0.1705965700256692	-2.674584257768972	-3.724280927979708	1.401986407277765	0.2339239188108478	0.8347850818058306	0.004196689475138517	22.75272238794075	7.336959517685123	-7.086037648743363	-20.3509648070254	4.400800216748841	0	-1.075056634206244	-4.271849675311366	-7.535804839062862	-54.38672719330246	-12.06770191464537	0	-0.4220201278372225	7.026725655916851	-1.856246226795832
0.1819696746940471	-2.767498891158309	-3.575930111979118	1.511890820438635	0.2468016523524774	0.837167546625345	0.004482503488457318	21.60310474622822	7.247198143174397	-7.106194210658474	-19.87416527181118	4.996690362301901	0	1.731735189979499	-4.424796114865698	-6.902320355640727	-57.70642925902965	-11.34980468271627	0	-0.4361166943037947	6.883594116499944	-1.516032021600271
0.1933427793624251	-2.878475470669558	-3.344401250165203	1.619116973139816	0.2594068010248621	0.8394520768852456	0.004781165314990506	20.53147543934175	7.084303596909787	-7.00282478013429	-19.46314162922783	5.500270967228019	0	4.580364368510595	-4.409734244923587	-6.292115650739584	-60.68522307261345	-10.2444169570748	0	-0.4495648849623323	6.623490994419518	-1.179774480838688
0.204715884030803	-2.994485377042887	-3.056787729827447	1.70748490152019	0.2718099827680684	0.8416542224745797	0.005092408292456592	19.52324145699568	6.874665995224828	-6.780028710131264	-19.13258103360662	5.962920078522514	0	7.430191252285451	-4.264615538391255	-5.733394108791712	-63.30823472689428	-8.908352540008712	0	-0.4668930174113326	6.286165774381721	-0.8435859178907806
0.2160889886991809	-3.103999531077615	-2.737422365647924	1.765341125879482	0.2840899869145851	0.8437750647694717	0.005399431857312189	18.54665690649529	6.640933357333357	-6.454462281130384	-18.85966714062356	6.416339857667569	0	10.23913417315923	-4.030160778253486	-5.251663493890407	-65.53859548437589	-7.4944962020266	0	-0.4899075419873619	5.910608464911088	-0.5039497957444451
0.2274620933675589	-3.196313678988228	-2.394135245516928	1.78932036741483	0.2963320304973709	0.8458071686306852	0.00568278580447731	17.5549456074509	6.387569493479448	-6.06495836884819	-18.5948583070975	6.898927611251163	0	12.9668259339464	-3.732292628538707	-4.866818404162458	-67.34776405506594	-6.070743257129545	0	-0.5180604652086094	5.513724306711169	-0.1605172961507987
0.2388351980359369	-3.262698661625899	-2.031601699820175	1.780399082263095	0.3085893282808774	0.8477366577838192	0.005930520373811379	16.51585470041628	6.115318288638606	-5.650108195063003	-18.30014471923781	7.413630439313639	0	15.5841651509227	-3.392648581777049	-4.58930283772457	-68.73214701375096	-4.652343879973037	0	-0.5544892996719435	5.105194750187801	0.1851076777405612
0.2502083027043148	-3.297347212985643	-1.655110397016494	1.741278323631259	0.3208876415008388	0.8495480514694963	0.006143034259483413	15.41393521400164	5.825364347046712	-5.249393012476466	-17.95667513026252	7.952861156709958	0	18.06924817104941	-3.029243598961274	-4.418601220163429	-69.68993380765184	-3.258501594825763	0	-0.604234356577801	4.69142798985849	0.5311406459039009
